<?xml version="1.0" encoding="utf-8"?>
<!-- Generator: Adobe Illustrator 27.0.0, SVG Export Plug-In . SVG Version: 6.00 Build 0)  -->
<svg version="1.1" id="Layer_1" xmlns="http://www.w3.org/2000/svg" xmlns:xlink="http://www.w3.org/1999/xlink" x="0px" y="0px"
	 viewBox="0 0 512 512" style="enable-background:new 0 0 512 512;" xml:space="preserve">
<style type="text/css">
	.st0{fill:#131313;}
	.st1{fill:#FFFFFF;}
	.st2{fill:#FFE58D;}
	.st3{fill:#76A9DD;}
	.st4{fill:#0A0A0A;}
	.st5{fill:#FFCCA8;}
	.st6{fill:#D39B6B;}
</style>
<g>
	<g>
		<polygon class="st0" points="461.74,183.78 249.74,183.78 282.45,39.16 494.45,39.16 		"/>
		<polygon class="st1" points="453.13,176.9 241.14,176.9 273.85,32.28 485.84,32.28 		"/>
		<path class="st0" d="M453.13,177.16H241.14c-0.08,0-0.15-0.04-0.2-0.1c-0.05-0.06-0.07-0.14-0.05-0.22l32.71-144.62
			c0.03-0.12,0.13-0.2,0.25-0.2h211.99c0.08,0,0.15,0.04,0.2,0.1c0.05,0.06,0.07,0.14,0.05,0.22l-32.71,144.62
			C453.35,177.07,453.25,177.16,453.13,177.16z M241.46,176.64h211.46l32.59-144.1H274.05L241.46,176.64z"/>
		<path class="st0" d="M483.08,46.73H271.09c-0.14,0-0.26-0.12-0.26-0.26c0-0.14,0.12-0.26,0.26-0.26h211.99
			c0.14,0,0.26,0.12,0.26,0.26C483.34,46.61,483.23,46.73,483.08,46.73z"/>
		<g>
			<g>
				
					<ellipse transform="matrix(0.1602 -0.9871 0.9871 0.1602 198.6237 312.988)" class="st2" cx="283.25" cy="39.77" rx="1.46" ry="1.46"/>
				
					<ellipse transform="matrix(0.2298 -0.9732 0.9732 0.2298 184.202 312.2829)" class="st2" cx="289.39" cy="39.77" rx="1.46" ry="1.46"/>
				
					<ellipse transform="matrix(0.1602 -0.9871 0.9871 0.1602 208.946 325.1204)" class="st2" cx="295.54" cy="39.77" rx="1.46" ry="1.46"/>
			</g>
		</g>
		<g>
			<path class="st0" d="M451.23,42.13h-4.75c-0.14,0-0.26-0.12-0.26-0.26c0-0.14,0.12-0.26,0.26-0.26h4.75
				c0.14,0,0.26,0.12,0.26,0.26C451.49,42.01,451.37,42.13,451.23,42.13z"/>
			<g>
				<path class="st0" d="M471.11,42.13c-0.07,0-0.14-0.03-0.19-0.08l-4.75-4.93c-0.1-0.1-0.1-0.27,0.01-0.37
					c0.1-0.1,0.27-0.1,0.37,0.01l4.75,4.93c0.1,0.1,0.1,0.27-0.01,0.37C471.24,42.1,471.18,42.13,471.11,42.13z"/>
				<path class="st0" d="M466.36,42.13c-0.06,0-0.13-0.02-0.18-0.07c-0.1-0.1-0.11-0.26-0.01-0.37l4.75-4.93
					c0.1-0.1,0.26-0.11,0.37-0.01c0.1,0.1,0.11,0.26,0.01,0.37l-4.75,4.93C466.5,42.1,466.43,42.13,466.36,42.13z"/>
			</g>
			<g>
				<path class="st0" d="M461.79,40.48h-1.99c-0.14,0-0.26-0.12-0.26-0.26s0.12-0.26,0.26-0.26h1.73V37.2h-3.47v1.39
					c0,0.14-0.12,0.26-0.26,0.26s-0.26-0.12-0.26-0.26v-1.64c0-0.14,0.12-0.26,0.26-0.26h3.98c0.14,0,0.26,0.12,0.26,0.26v3.29
					C462.04,40.37,461.93,40.48,461.79,40.48z"/>
				<path class="st0" d="M459.79,42.13h-3.98c-0.14,0-0.26-0.12-0.26-0.26v-3.29c0-0.14,0.12-0.26,0.26-0.26h3.98
					c0.14,0,0.26,0.12,0.26,0.26v3.29C460.05,42.01,459.94,42.13,459.79,42.13z M456.07,41.61h3.47v-2.77h-3.47V41.61z"/>
			</g>
		</g>
		<path class="st3" d="M365.78,64.67h-84.83c-1.25,0-2.27-1.02-2.27-2.27l0,0c0-1.25,1.02-2.27,2.27-2.27h84.83
			c1.25,0,2.27,1.02,2.27,2.27l0,0C368.06,63.65,367.04,64.67,365.78,64.67z"/>
		<path class="st0" d="M458.9,89.77h-84.83c-1.4,0-2.53-1.14-2.53-2.53s1.14-2.53,2.53-2.53h84.83c1.4,0,2.53,1.14,2.53,2.53
			S460.3,89.77,458.9,89.77z M374.07,85.23c-1.11,0-2.01,0.9-2.01,2.01s0.9,2.01,2.01,2.01h84.83c1.11,0,2.01-0.9,2.01-2.01
			s-0.9-2.01-2.01-2.01H374.07z"/>
		<path class="st0" d="M454.14,114.61h-84.83c-1.4,0-2.53-1.14-2.53-2.53s1.14-2.53,2.53-2.53h84.83c1.4,0,2.53,1.14,2.53,2.53
			S455.53,114.61,454.14,114.61z M369.31,110.07c-1.11,0-2.01,0.9-2.01,2.01c0,1.11,0.9,2.01,2.01,2.01h84.83
			c1.11,0,2.01-0.9,2.01-2.01s-0.9-2.01-2.01-2.01H369.31z"/>
		<path class="st0" d="M401.25,77.35h-84.83c-1.4,0-2.53-1.14-2.53-2.53s1.14-2.53,2.53-2.53h84.83c1.4,0,2.53,1.14,2.53,2.53
			S402.64,77.35,401.25,77.35z M316.42,72.8c-1.11,0-2.01,0.9-2.01,2.01s0.9,2.01,2.01,2.01h84.83c1.11,0,2.01-0.9,2.01-2.01
			s-0.9-2.01-2.01-2.01H316.42z"/>
		<path class="st0" d="M435.26,126.78h-84.83c-1.25,0-2.27-1.02-2.27-2.27v0c0-1.25,1.02-2.27,2.27-2.27h84.83
			c1.25,0,2.27,1.02,2.27,2.27v0C437.53,125.76,436.51,126.78,435.26,126.78z"/>
		<path class="st0" d="M354.4,101.93h-84.83c-1.25,0-2.27-1.02-2.27-2.27l0,0c0-1.25,1.02-2.27,2.27-2.27h84.83
			c1.25,0,2.27,1.02,2.27,2.27l0,0C356.68,100.92,355.66,101.93,354.4,101.93z"/>
		<path class="st0" d="M466.24,64.67H415.7c-1.25,0-2.27-1.02-2.27-2.27l0,0c0-1.25,1.02-2.27,2.27-2.27h50.53
			c1.25,0,2.27,1.02,2.27,2.27l0,0C468.51,63.65,467.49,64.67,466.24,64.67z"/>
		<path class="st0" d="M322.19,89.77h-50.53c-1.4,0-2.53-1.14-2.53-2.53s1.14-2.53,2.53-2.53h50.53c1.4,0,2.53,1.14,2.53,2.53
			S323.58,89.77,322.19,89.77z M271.65,85.23c-1.11,0-2.01,0.9-2.01,2.01c0,1.11,0.9,2.01,2.01,2.01h50.53
			c1.11,0,2.01-0.9,2.01-2.01c0-1.11-0.9-2.01-2.01-2.01H271.65z"/>
		<path class="st0" d="M360.53,151.88H310c-1.4,0-2.53-1.14-2.53-2.53c0-1.4,1.14-2.53,2.53-2.53h50.53c1.4,0,2.53,1.14,2.53,2.53
			S361.93,151.88,360.53,151.88z M310,147.33c-1.11,0-2.01,0.9-2.01,2.01c0,1.11,0.9,2.01,2.01,2.01h50.53
			c1.11,0,2.01-0.9,2.01-2.01c0-1.11-0.9-2.01-2.01-2.01H310z"/>
		<path class="st3" d="M438.7,151.62h-50.53c-1.25,0-2.27-1.02-2.27-2.27v0c0-1.25,1.02-2.27,2.27-2.27h50.53
			c1.25,0,2.27,1.02,2.27,2.27v0C440.97,150.6,439.95,151.62,438.7,151.62z"/>
		<path class="st3" d="M316.04,126.78h-50.53c-1.25,0-2.27-1.02-2.27-2.27v0c0-1.25,1.02-2.27,2.27-2.27h50.53
			c1.25,0,2.27,1.02,2.27,2.27v0C318.31,125.76,317.3,126.78,316.04,126.78z"/>
		<path class="st0" d="M440.81,164.3h-84.83c-1.4,0-2.53-1.14-2.53-2.53s1.14-2.53,2.53-2.53h84.83c1.4,0,2.53,1.14,2.53,2.53
			S442.21,164.3,440.81,164.3z M355.98,159.76c-1.11,0-2.01,0.9-2.01,2.01c0,1.11,0.9,2.01,2.01,2.01h84.83
			c1.11,0,2.01-0.9,2.01-2.01s-0.9-2.01-2.01-2.01H355.98z"/>
		<path class="st0" d="M349.63,139.46H264.8c-1.4,0-2.53-1.14-2.53-2.53s1.14-2.53,2.53-2.53h84.83c1.4,0,2.53,1.14,2.53,2.53
			S351.03,139.46,349.63,139.46z M264.8,134.91c-1.11,0-2.01,0.9-2.01,2.01c0,1.11,0.9,2.01,2.01,2.01h84.83
			c1.11,0,2.01-0.9,2.01-2.01s-0.9-2.01-2.01-2.01H264.8z"/>
		<path class="st3" d="M311.27,164.04h-50.53c-1.25,0-2.27-1.02-2.27-2.27l0,0c0-1.25,1.02-2.27,2.27-2.27h50.53
			c1.25,0,2.27,1.02,2.27,2.27l0,0C313.54,163.02,312.52,164.04,311.27,164.04z"/>
		<path class="st0" d="M394.19,64.93h-13.45c-1.4,0-2.53-1.14-2.53-2.53c0-1.4,1.14-2.53,2.53-2.53h13.45c1.4,0,2.53,1.14,2.53,2.53
			C396.72,63.79,395.59,64.93,394.19,64.93z M380.74,60.38c-1.11,0-2.01,0.9-2.01,2.01c0,1.11,0.9,2.01,2.01,2.01h13.45
			c1.11,0,2.01-0.9,2.01-2.01c0-1.11-0.9-2.01-2.01-2.01H380.74z"/>
		<path class="st3" d="M450.34,77.09h-13.45c-1.25,0-2.27-1.02-2.27-2.27l0,0c0-1.25,1.02-2.27,2.27-2.27h13.45
			c1.25,0,2.27,1.02,2.27,2.27l0,0C452.61,76.07,451.59,77.09,450.34,77.09z"/>
		<path class="st0" d="M289.96,77.35h-13.45c-1.4,0-2.53-1.14-2.53-2.53s1.14-2.53,2.53-2.53h13.45c1.4,0,2.53,1.14,2.53,2.53
			S291.36,77.35,289.96,77.35z M276.51,72.8c-1.11,0-2.01,0.9-2.01,2.01s0.9,2.01,2.01,2.01h13.45c1.11,0,2.01-0.9,2.01-2.01
			s-0.9-2.01-2.01-2.01H276.51z"/>
		<path class="st3" d="M358.83,89.51h-13.45c-1.25,0-2.27-1.02-2.27-2.27l0,0c0-1.25,1.02-2.27,2.27-2.27h13.45
			c1.25,0,2.27,1.02,2.27,2.27l0,0C361.11,88.49,360.09,89.51,358.83,89.51z"/>
		<path class="st3" d="M390.08,101.93h-13.45c-1.25,0-2.27-1.02-2.27-2.27l0,0c0-1.25,1.02-2.27,2.27-2.27h13.45
			c1.25,0,2.27,1.02,2.27,2.27l0,0C392.35,100.92,391.33,101.93,390.08,101.93z"/>
		<path class="st3" d="M440.82,101.93h-13.45c-1.25,0-2.27-1.02-2.27-2.27l0,0c0-1.25,1.02-2.27,2.27-2.27h13.45
			c1.25,0,2.27,1.02,2.27,2.27l0,0C443.09,100.92,442.07,101.93,440.82,101.93z"/>
		<path class="st0" d="M298.96,114.61h-13.45c-1.4,0-2.53-1.14-2.53-2.53s1.14-2.53,2.53-2.53h13.45c1.4,0,2.53,1.14,2.53,2.53
			S300.36,114.61,298.96,114.61z M285.51,110.07c-1.11,0-2.01,0.9-2.01,2.01c0,1.11,0.9,2.01,2.01,2.01h13.45
			c1.11,0,2.01-0.9,2.01-2.01s-0.9-2.01-2.01-2.01H285.51z"/>
		<path class="st0" d="M339.5,127.04h-13.45c-1.4,0-2.53-1.14-2.53-2.53s1.14-2.53,2.53-2.53h13.45c1.4,0,2.53,1.14,2.53,2.53
			C342.03,125.9,340.9,127.04,339.5,127.04z M326.05,122.49c-1.11,0-2.01,0.9-2.01,2.01c0,1.11,0.9,2.01,2.01,2.01h13.45
			c1.11,0,2.01-0.9,2.01-2.01s-0.9-2.01-2.01-2.01H326.05z"/>
		<path class="st3" d="M435.26,139.2H421.8c-1.25,0-2.27-1.02-2.27-2.27v0c0-1.25,1.02-2.27,2.27-2.27h13.45
			c1.25,0,2.27,1.02,2.27,2.27v0C437.53,138.18,436.51,139.2,435.26,139.2z"/>
		<path class="st0" d="M288.2,151.62h-13.45c-1.25,0-2.27-1.02-2.27-2.27v0c0-1.25,1.02-2.27,2.27-2.27h13.45
			c1.25,0,2.27,1.02,2.27,2.27v0C290.47,150.6,289.45,151.62,288.2,151.62z"/>
		<path class="st0" d="M343.34,164.04h-13.45c-1.25,0-2.27-1.02-2.27-2.27l0,0c0-1.25,1.02-2.27,2.27-2.27h13.45
			c1.25,0,2.27,1.02,2.27,2.27l0,0C345.61,163.02,344.59,164.04,343.34,164.04z"/>
	</g>
	<g>
		<polygon class="st0" points="405.21,191.93 382.67,168.52 381.38,200.99 389.67,192.8 393.82,203.73 397.73,202.24 393.58,191.31 
					"/>
		<polygon class="st1" points="401.77,190.21 379.23,166.79 377.94,199.27 386.22,191.08 390.38,202 394.29,200.52 390.13,189.59 		
			"/>
		<path class="st4" d="M390.38,202.26c-0.1,0-0.2-0.06-0.24-0.17l-4.01-10.56l-8,7.92c-0.08,0.07-0.19,0.1-0.29,0.05
			c-0.1-0.04-0.16-0.14-0.15-0.25l1.29-32.48c0-0.1,0.07-0.19,0.17-0.23c0.1-0.04,0.21-0.01,0.28,0.06l22.54,23.42
			c0.07,0.08,0.09,0.19,0.05,0.29c-0.04,0.1-0.14,0.16-0.25,0.15l-11.24-0.6l4.01,10.56c0.02,0.06,0.02,0.14-0.01,0.2
			c-0.03,0.06-0.08,0.11-0.14,0.14l-3.91,1.49C390.44,202.26,390.41,202.26,390.38,202.26z M386.22,190.82c0.02,0,0.04,0,0.05,0.01
			c0.09,0.02,0.16,0.08,0.19,0.16l4.06,10.69l3.43-1.3l-4.06-10.69c-0.03-0.08-0.02-0.17,0.03-0.24s0.13-0.11,0.22-0.11l10.98,0.59
			l-21.67-22.51l-1.24,31.22l7.82-7.73C386.09,190.85,386.16,190.82,386.22,190.82z"/>
	</g>
	<g>
		<ellipse class="st0" cx="262.55" cy="277.09" rx="26.65" ry="6.82"/>
		<path class="st5" d="M237.79,253.41c0,0,6.34,21.92,0,28.26c-6.34,6.34,26.87,12.94,26.87,12.94l24.06-10.55
			c0,0-7.34-12.16-2.72-30.65C270.54,253.41,237.79,253.41,237.79,253.41z"/>
		
			<ellipse transform="matrix(0.1602 -0.9871 0.9871 0.1602 -37.8298 429.1352)" class="st0" cx="233.28" cy="236.8" rx="12.08" ry="12.08"/>
		<circle class="st0" cx="289.36" cy="234.29" r="10.8"/>
		<path class="st5" d="M263.8,265.35h-6.25c-16.64,0-30.12-13.49-30.12-30.12v-30.1c0-14.03,11.38-25.41,25.41-25.41h15.68
			c14.03,0,25.41,11.38,25.41,25.41v30.1C293.92,251.86,280.44,265.35,263.8,265.35z"/>
		<circle class="st5" cx="222.22" cy="222.53" r="13.13"/>
		<circle class="st5" cx="299.13" cy="222.53" r="13.13"/>
		<path class="st0" d="M295.25,224.79c-0.03,0-0.05,0-0.08-0.01c-0.14-0.04-0.21-0.19-0.17-0.33c0.02-0.07,2.45-7.21,9.75-6.23
			c0.14,0.02,0.24,0.15,0.22,0.29c-0.02,0.14-0.15,0.24-0.29,0.22c-6.89-0.93-9.17,5.81-9.19,5.88
			C295.46,224.72,295.36,224.79,295.25,224.79z"/>
		<path class="st0" d="M301.56,226.28c-0.06,0-0.12-0.02-0.17-0.06c-0.11-0.09-0.12-0.25-0.03-0.36c0.12-0.15,2.95-3.61-0.72-6.87
			c-0.11-0.09-0.12-0.26-0.02-0.36c0.09-0.11,0.26-0.12,0.36-0.02c4.04,3.6,0.8,7.55,0.77,7.59
			C301.71,226.25,301.64,226.28,301.56,226.28z"/>
		<path class="st0" d="M225.18,225.59c-0.11,0-0.21-0.07-0.25-0.18c-0.01-0.02-0.58-1.74-2-3.31c-1.89-2.09-4.31-2.95-7.19-2.57
			c-0.14,0.02-0.27-0.08-0.29-0.22c-0.02-0.14,0.08-0.27,0.22-0.29c7.31-0.99,9.73,6.15,9.75,6.23c0.04,0.14-0.03,0.28-0.17,0.33
			C225.23,225.58,225.21,225.59,225.18,225.59z"/>
		<path class="st0" d="M218.87,227.08c-0.06,0-0.13-0.02-0.18-0.07c-0.07-0.06-1.63-1.6-1.54-3.73c0.06-1.4,0.84-2.71,2.3-3.89
			c0.11-0.09,0.27-0.07,0.36,0.04c0.09,0.11,0.07,0.27-0.04,0.36c-1.34,1.08-2.05,2.26-2.11,3.51c-0.09,1.89,1.37,3.32,1.38,3.33
			c0.1,0.1,0.11,0.26,0.01,0.37C219,227.05,218.93,227.08,218.87,227.08z"/>
		<ellipse class="st0" cx="243.79" cy="215.67" rx="2.66" ry="4.78"/>
		<ellipse class="st0" cx="276.69" cy="215.67" rx="2.66" ry="4.78"/>
		<path class="st0" d="M262.42,234.14c-1.12,0-4.39-0.28-5.14-3.42c-0.37-1.57,0.52-4.6,1.44-7.36c0.96-2.87,1.51-6.64,1.51-6.67
			c0.02-0.14,0.15-0.24,0.29-0.22c0.14,0.02,0.24,0.15,0.22,0.29c-0.01,0.04-0.56,3.85-1.54,6.76c-0.55,1.63-1.82,5.44-1.43,7.08
			c0.8,3.36,4.92,3.01,4.96,3.01c0.14-0.01,0.27,0.09,0.28,0.23s-0.09,0.27-0.23,0.28C262.79,234.13,262.65,234.14,262.42,234.14z"
			/>
		<path class="st6" d="M295.45,212.52"/>
		<path class="st1" d="M255.19,241.75c6.95,8.68,20.29,5.48,22.68-6.03c0.22-1.05-0.83-1.85-1.67-1.18
			c-6.16,5.02-12.42,5.36-20.28,5.25C254.9,239.78,254.54,240.94,255.19,241.75z"/>
		<g>
			<path class="st1" d="M243.79,231.65c-6.78,0-12.29-5.51-12.29-12.29c0-6.78,5.51-12.29,12.29-12.29
				c6.78,0,12.29,5.51,12.29,12.29C256.08,226.14,250.57,231.65,243.79,231.65z M243.79,207.59c-6.49,0-11.77,5.28-11.77,11.77
				s5.28,11.77,11.77,11.77c6.49,0,11.77-5.28,11.77-11.77S250.28,207.59,243.79,207.59z"/>
			<path class="st1" d="M255.13,215.58c-0.1,0-0.19-0.05-0.23-0.15c-0.06-0.13-0.01-0.28,0.12-0.34c1.64-0.77,3.4-1.16,5.22-1.16
				c1.83,0,3.58,0.39,5.22,1.16c0.13,0.06,0.18,0.21,0.12,0.34c-0.06,0.13-0.21,0.18-0.34,0.12c-1.57-0.74-3.25-1.11-5-1.11
				c-1.75,0-3.43,0.37-5,1.11C255.2,215.58,255.16,215.58,255.13,215.58z"/>
			<path class="st1" d="M276.69,231.65c-6.78,0-12.29-5.51-12.29-12.29c0-6.78,5.51-12.29,12.29-12.29
				c6.78,0,12.29,5.51,12.29,12.29C288.98,226.14,283.47,231.65,276.69,231.65z M276.69,207.59c-6.49,0-11.77,5.28-11.77,11.77
				s5.28,11.77,11.77,11.77c6.49,0,11.77-5.28,11.77-11.77S283.18,207.59,276.69,207.59z"/>
		</g>
		<g>
			<circle class="st0" cx="262.14" cy="159.21" r="20.51"/>
			<circle class="st0" cx="248.6" cy="184.1" r="12.08"/>
			<ellipse class="st0" cx="224.29" cy="204.6" rx="8.58" ry="12.08"/>
			<circle class="st0" cx="264.66" cy="182.65" r="7.83"/>
			<ellipse class="st0" cx="295.45" cy="205.83" rx="7.24" ry="10.8"/>
			<circle class="st0" cx="215.81" cy="200.22" r="10.8"/>
			<circle class="st0" cx="304.72" cy="200.22" r="10.8"/>
			<circle class="st0" cx="231.32" cy="178.58" r="20.51"/>
			<circle class="st0" cx="289.36" cy="179.71" r="20.51"/>
		</g>
		<ellipse class="st0" cx="243.79" cy="202.87" rx="8.35" ry="1.73"/>
		<ellipse class="st0" cx="276.69" cy="202.87" rx="8.35" ry="1.73"/>
		<path class="st3" d="M297.27,282.46l-8.55-6.66c1.19,1.99-24.55,15.21-24.55,15.21s-28.68-12.04-27.75-15.26l-9.33,6.17
			l-27.78,5.57c-16.76,4.62-31.67,15.32-42.42,30.43l-59.16,93.84c-19.52,27.44-2.06,67.97,29.28,67.97h264.55
			c30.88,0,48.47-39.48,29.89-67.08l-55.03-93.05c-10.87-16.15-26.41-27.59-43.97-32.36L297.27,282.46z"/>
		<path class="st0" d="M297.27,282.46l-9.42,23.67c-0.34,0.87-1.41,1.17-2.16,0.62l-21.52-15.74l-24.21,15.9
			c-0.74,0.48-1.73,0.19-2.08-0.61l-10.79-24.38l10.09,27.27c0.33,0.9,1.44,1.22,2.2,0.64l24.79-18.82l22.14,18.63
			c0.77,0.65,1.96,0.31,2.27-0.65L297.27,282.46z"/>
		
			<ellipse transform="matrix(0.2298 -0.9732 0.9732 0.2298 -93.075 491.7917)" class="st0" cx="264.17" cy="304.7" rx="2.14" ry="2.14"/>
		<path class="st0" d="M284.61,269c-0.28-3.7-0.15-7.99,0.77-12.76c0,0,0,0,0,0c-5.47,5.61-13.11,9.1-21.57,9.1h-6.25
			C257.55,265.35,271.43,270.33,284.61,269z"/>
	</g>
	<g>
		<path class="st1" d="M367.27,470.87H151.4c-6.37,0-11.53-5.16-11.53-11.53V327.38c0-6.37,5.16-11.53,11.53-11.53h215.87
			c6.37,0,11.53,5.16,11.53,11.53v131.96C378.8,465.71,373.64,470.87,367.27,470.87z"/>
		<ellipse class="st0" cx="259.33" cy="393.36" rx="8.79" ry="9.4"/>
		<path class="st0" d="M374.37,479.72H144.29c-2.44,0-4.43-1.98-4.43-4.43l0,0c0-2.44,1.98-4.43,4.43-4.43h230.08
			c2.44,0,4.43,1.98,4.43,4.43l0,0C378.8,477.74,376.82,479.72,374.37,479.72z"/>
		<path class="st0" d="M139.87,361.7c-0.14,0-0.26-0.12-0.26-0.26v-34.06c0-6.5,5.29-11.79,11.79-11.79h13.29
			c0.14,0,0.26,0.12,0.26,0.26s-0.12,0.26-0.26,0.26H151.4c-6.22,0-11.27,5.06-11.27,11.27v34.06
			C140.12,361.59,140.01,361.7,139.87,361.7z"/>
		<path class="st0" d="M378.8,368.06c-0.14,0-0.26-0.12-0.26-0.26v-40.42c0-6.22-5.06-11.27-11.27-11.27h-49.29
			c-0.14,0-0.26-0.12-0.26-0.26s0.12-0.26,0.26-0.26h49.29c6.5,0,11.79,5.29,11.79,11.79v40.42
			C379.06,367.95,378.94,368.06,378.8,368.06z"/>
	</g>
	<g>
		<polygon class="st3" points="191.77,134.07 132.72,134.07 141.83,93.79 200.88,93.79 		"/>
		<polygon class="st1" points="188.33,130.63 129.28,130.63 138.39,90.35 197.44,90.35 		"/>
		<polygon class="st1" points="188.33,130.63 129.28,130.63 138.39,90.35 197.44,90.35 		"/>
		<path class="st0" d="M188.33,130.89h-59.05c-0.08,0-0.15-0.04-0.2-0.1c-0.05-0.06-0.07-0.14-0.05-0.22l9.11-40.28
			c0.03-0.12,0.13-0.2,0.25-0.2h59.05c0.08,0,0.15,0.04,0.2,0.1c0.05,0.06,0.07,0.14,0.05,0.22l-9.11,40.28
			C188.55,130.81,188.45,130.89,188.33,130.89z M129.6,130.37h58.52l8.99-39.76H138.6L129.6,130.37z"/>
		<path class="st0" d="M196.67,94.56h-59.05c-0.14,0-0.26-0.12-0.26-0.26s0.12-0.26,0.26-0.26h59.05c0.14,0,0.26,0.12,0.26,0.26
			S196.81,94.56,196.67,94.56z"/>
		<g>
			<g>
				<ellipse class="st2" cx="141.1" cy="92.34" rx="0.7" ry="0.77"/>
				<path class="st2" d="M144.73,92.34c0,0.43-0.31,0.77-0.7,0.77c-0.38,0-0.7-0.35-0.7-0.77c0-0.43,0.31-0.77,0.7-0.77
					C144.42,91.57,144.73,91.91,144.73,92.34z"/>
				<ellipse class="st2" cx="146.97" cy="92.34" rx="0.7" ry="0.77"/>
			</g>
		</g>
		<path class="st0" d="M156.8,122.36c-0.04,0-0.09-0.01-0.13-0.03c-0.12-0.07-0.17-0.23-0.1-0.35l13.12-23.23
			c0.07-0.12,0.23-0.17,0.35-0.1c0.12,0.07,0.17,0.23,0.1,0.35l-13.12,23.23C156.98,122.32,156.89,122.36,156.8,122.36z"/>
		<path class="st0" d="M153.83,116.5c-0.04,0-0.08-0.01-0.12-0.03l-10.69-5.75c-0.08-0.05-0.14-0.13-0.14-0.23s0.05-0.18,0.14-0.23
			l10.69-5.75c0.13-0.07,0.28-0.02,0.35,0.1c0.07,0.13,0.02,0.28-0.1,0.35l-10.26,5.53l10.26,5.53c0.13,0.07,0.17,0.22,0.1,0.35
			C154.01,116.45,153.92,116.5,153.83,116.5z"/>
		<path class="st0" d="M172.89,116.5c-0.09,0-0.18-0.05-0.23-0.14c-0.07-0.13-0.02-0.28,0.1-0.35l10.26-5.53l-10.26-5.53
			c-0.13-0.07-0.17-0.22-0.1-0.35c0.07-0.13,0.22-0.17,0.35-0.1l10.69,5.75c0.08,0.05,0.14,0.13,0.14,0.23s-0.05,0.18-0.14,0.23
			l-10.69,5.75C172.97,116.49,172.93,116.5,172.89,116.5z"/>
	</g>
	<g>
		<path class="st3" d="M497.3,275.05H333.01c-4.8,0-8.7-3.89-8.7-8.7l0,0c0-4.8,3.89-8.7,8.7-8.7H497.3c4.8,0,8.7,3.89,8.7,8.7l0,0
			C506,271.15,502.11,275.05,497.3,275.05z"/>
		<path class="st1" d="M493.86,271.61H329.56c-4.8,0-8.7-3.89-8.7-8.7l0,0c0-4.8,3.89-8.7,8.7-8.7h164.29c4.8,0,8.7,3.89,8.7,8.7
			l0,0C502.56,267.71,498.66,271.61,493.86,271.61z"/>
		<path class="st0" d="M493.86,271.86H329.56c-4.94,0-8.96-4.02-8.96-8.96c0-4.94,4.02-8.96,8.96-8.96h164.29
			c4.94,0,8.96,4.02,8.96,8.96C502.81,267.85,498.8,271.86,493.86,271.86z M329.56,254.46c-4.65,0-8.44,3.79-8.44,8.44
			c0,4.65,3.79,8.44,8.44,8.44h164.29c4.65,0,8.44-3.79,8.44-8.44c0-4.65-3.79-8.44-8.44-8.44H329.56z"/>
		<circle class="st0" cx="337.24" cy="262.91" r="5.26"/>
	</g>
	<g>
		<path class="st0" d="M142.3,226.13H51.93c-4.8,0-8.7-3.89-8.7-8.7v0c0-4.8,3.89-8.7,8.7-8.7h90.38c4.8,0,8.7,3.89,8.7,8.7v0
			C151,222.24,147.11,226.13,142.3,226.13z"/>
		<path class="st1" d="M140.26,222.69H49.88c-4.8,0-8.7-3.89-8.7-8.7v0c0-4.8,3.89-8.7,8.7-8.7h90.38c4.8,0,8.7,3.89,8.7,8.7v0
			C148.96,218.8,145.07,222.69,140.26,222.69z"/>
		<path class="st0" d="M140.26,222.95H49.88c-4.94,0-8.96-4.02-8.96-8.96s4.02-8.96,8.96-8.96h90.38c4.94,0,8.96,4.02,8.96,8.96
			S145.2,222.95,140.26,222.95z M49.88,205.55c-4.65,0-8.44,3.79-8.44,8.44c0,4.65,3.79,8.44,8.44,8.44h90.38
			c4.65,0,8.44-3.79,8.44-8.44c0-4.65-3.79-8.44-8.44-8.44H49.88z"/>
		<path class="st0" d="M128.17,219.75c-0.07,0-0.13-0.03-0.18-0.08c-0.1-0.1-0.1-0.26,0-0.37l11-11c0.1-0.1,0.26-0.1,0.37,0
			c0.1,0.1,0.1,0.26,0,0.37l-11,11C128.3,219.72,128.24,219.75,128.17,219.75z"/>
		<path class="st0" d="M139.17,219.75c-0.07,0-0.13-0.03-0.18-0.08l-11-11c-0.1-0.1-0.1-0.26,0-0.37c0.1-0.1,0.26-0.1,0.37,0l11,11
			c0.1,0.1,0.1,0.26,0,0.37C139.3,219.72,139.24,219.75,139.17,219.75z"/>
	</g>
	<g>
		<polygon class="st0" points="463.62,235.43 475.52,229.99 470.55,242.1 482.24,248.01 469.66,251.68 472.33,264.5 461.62,256.95 
			453.26,267.03 452.48,253.96 439.39,253.7 449.13,244.94 441.16,234.55 454.08,236.7 457.25,223.99 		"/>
		<polygon class="st1" points="461.23,233.05 473.14,227.6 468.16,239.71 479.85,245.63 467.28,249.29 469.94,262.11 459.24,254.57 
			450.87,264.64 450.1,251.57 437,251.31 446.74,242.56 438.78,232.16 451.7,234.31 454.86,221.61 		"/>
		<path class="st0" d="M450.87,264.9c-0.03,0-0.05,0-0.08-0.01c-0.1-0.03-0.17-0.12-0.18-0.23l-0.76-12.83L437,251.57
			c-0.11,0-0.2-0.07-0.24-0.17c-0.04-0.1-0.01-0.21,0.07-0.28l9.56-8.6l-7.82-10.21c-0.06-0.08-0.07-0.2-0.02-0.29
			c0.05-0.09,0.16-0.14,0.26-0.12l12.68,2.11l3.11-12.48c0.03-0.1,0.11-0.18,0.22-0.19c0.11-0.01,0.21,0.04,0.26,0.13l6.25,11.23
			l11.69-5.35c0.1-0.04,0.21-0.02,0.29,0.05c0.08,0.07,0.1,0.19,0.06,0.28l-4.88,11.89l11.47,5.81c0.09,0.05,0.15,0.15,0.14,0.25
			c-0.01,0.11-0.08,0.19-0.18,0.22l-12.34,3.6l2.61,12.59c0.02,0.1-0.02,0.21-0.11,0.27c-0.09,0.06-0.2,0.06-0.29,0l-10.51-7.41
			l-8.21,9.89C451.02,264.87,450.95,264.9,450.87,264.9z M437.66,251.07l12.44,0.24c0.13,0,0.24,0.11,0.25,0.24l0.74,12.42
			l7.95-9.57c0.09-0.1,0.24-0.12,0.35-0.05l10.17,7.17l-2.53-12.18c-0.03-0.13,0.05-0.26,0.18-0.3l11.95-3.48l-11.1-5.62
			c-0.12-0.06-0.17-0.2-0.12-0.33l4.73-11.51l-11.31,5.18c-0.12,0.06-0.27,0.01-0.33-0.11l-6.05-10.87l-3.01,12.07
			c-0.03,0.13-0.16,0.21-0.29,0.19l-12.27-2.05l7.56,9.88c0.08,0.11,0.07,0.26-0.03,0.35L437.66,251.07z"/>
	</g>
	<g>
		<circle class="st2" cx="464.7" cy="401.16" r="11.1"/>
		
			<ellipse transform="matrix(0.2298 -0.9732 0.9732 0.2298 -67.3933 762.3684)" class="st2" cx="447.95" cy="423.76" rx="27.85" ry="27.85"/>
		<path class="st0" d="M462.68,394.35c-0.13,0-0.24-0.1-0.26-0.23l-0.81-8.27c-0.01-0.14,0.09-0.27,0.23-0.28
			c0.14-0.01,0.27,0.09,0.28,0.23l0.81,8.27c0.01,0.14-0.09,0.27-0.23,0.28C462.7,394.35,462.69,394.35,462.68,394.35z"/>
		<path class="st0" d="M472.98,397.78c-0.08,0-0.16-0.04-0.21-0.11c-0.08-0.12-0.05-0.28,0.07-0.36l5.05-3.43
			c0.12-0.08,0.28-0.05,0.36,0.07c0.08,0.12,0.05,0.28-0.07,0.36l-5.05,3.43C473.08,397.77,473.03,397.78,472.98,397.78z"/>
		<path class="st0" d="M477.21,406.66c-0.03,0-0.07-0.01-0.1-0.02l-6.17-2.65c-0.13-0.06-0.19-0.21-0.14-0.34
			c0.06-0.13,0.21-0.19,0.34-0.14l6.17,2.65c0.13,0.06,0.19,0.21,0.14,0.34C477.41,406.6,477.31,406.66,477.21,406.66z"/>
		<path class="st0" d="M431,404.85c-0.1,0-0.19-0.06-0.23-0.15l-4.84-10.49c-0.06-0.13,0-0.28,0.13-0.34c0.13-0.06,0.28,0,0.34,0.13
			l4.84,10.49c0.06,0.13,0,0.28-0.13,0.34C431.07,404.84,431.03,404.85,431,404.85z"/>
		<path class="st0" d="M447.18,413.99c-0.13,0-0.24-0.1-0.26-0.23l-1.28-11.03c-0.02-0.14,0.09-0.27,0.23-0.29
			c0.14-0.02,0.27,0.08,0.29,0.23l1.28,11.03c0.02,0.14-0.09,0.27-0.23,0.29C447.2,413.99,447.19,413.99,447.18,413.99z"/>
		<path class="st0" d="M424.94,419.78c-0.01,0-0.03,0-0.04,0l-7.67-1.21c-0.14-0.02-0.24-0.15-0.21-0.3
			c0.02-0.14,0.15-0.24,0.3-0.21l7.67,1.21c0.14,0.02,0.24,0.15,0.21,0.3C425.18,419.69,425.07,419.78,424.94,419.78z"/>
		<path class="st0" d="M469.95,425.57c-0.1,0-0.2-0.06-0.24-0.16c-0.05-0.13,0.01-0.28,0.14-0.34l9.49-3.77
			c0.13-0.05,0.28,0.01,0.34,0.14c0.05,0.13-0.01,0.28-0.14,0.34l-9.49,3.77C470.01,425.56,469.98,425.57,469.95,425.57z"/>
		<path class="st0" d="M447.45,430.07c-0.07,0-0.15-0.03-0.2-0.09c-0.09-0.11-0.08-0.27,0.03-0.36l8.98-7.47
			c0.11-0.09,0.27-0.08,0.36,0.03c0.09,0.11,0.08,0.27-0.03,0.36l-8.98,7.47C447.56,430.06,447.5,430.07,447.45,430.07z"/>
		<path class="st0" d="M455.3,437l-35.02-10.06c0.41,3.61,1.51,7,3.16,10.06H455.3z"/>
		<path class="st0" d="M447.45,479.46L447.45,479.46c-17.67,0-31.99-14.32-31.99-31.99V437h63.98v10.47
			C479.43,465.14,465.11,479.46,447.45,479.46z"/>
		<path class="st1" d="M479.43,437.26h-63.98c-0.14,0-0.26-0.12-0.26-0.26s0.12-0.26,0.26-0.26h63.98c0.14,0,0.26,0.12,0.26,0.26
			S479.58,437.26,479.43,437.26z"/>
	</g>
	<path class="st0" d="M496.24,479.98H6.26c-0.14,0-0.26-0.12-0.26-0.26c0-0.14,0.12-0.26,0.26-0.26h489.98
		c0.14,0,0.26,0.12,0.26,0.26C496.5,479.87,496.38,479.98,496.24,479.98z"/>
</g>
</svg>
